<?xml version="1.0" encoding="UTF-8"?>
<!-- (c) Carrd Inc. All rights reserved. All logos and trademarks are property of their respective owners. -->
<svg xmlns="http://www.w3.org/2000/svg" version="1.1" xmlns:xlink="http://www.w3.org/1999/xlink" viewBox="0 0 40 40" display="none" width="0" height="0">
	<symbol id="cancel" viewBox="0 0 40 40"><path d="M34,11.7c0-0.6-0.2-1.2-0.7-1.6l-3.2-3.2c-0.4-0.4-1-0.7-1.6-0.7s-1.2,0.2-1.6,0.7L20,13.8l-6.9-6.9c-0.4-0.4-1-0.7-1.6-0.7 c-0.6,0-1.2,0.2-1.6,0.7l-3.2,3.2c-0.4,0.4-0.7,1-0.7,1.6c0,0.6,0.2,1.2,0.7,1.6l6.9,6.9l-6.9,6.9c-0.4,0.4-0.7,1-0.7,1.6 s0.2,1.2,0.7,1.6l3.2,3.2c0.4,0.4,1,0.7,1.6,0.7c0.6,0,1.2-0.2,1.6-0.7l6.9-6.9l6.9,6.9c0.4,0.4,1,0.7,1.6,0.7s1.2-0.2,1.6-0.7 l3.2-3.2c0.4-0.4,0.7-1,0.7-1.6s-0.2-1.2-0.7-1.6l-6.9-6.9l6.9-6.9C33.8,12.9,34,12.3,34,11.7z"/></symbol>
	<symbol id="check" viewBox="0 0 40 40"><path d="M37.9,10.6l-3.2-3.2c-0.4-0.4-1-0.7-1.6-0.7c-0.6,0-1.2,0.2-1.6,0.7L15.9,23l-7-7c-0.4-0.4-1-0.7-1.6-0.7S6.1,15.6,5.6,16 l-3.2,3.2c-0.4,0.4-0.7,1-0.7,1.6S2,22,2.4,22.5l8.6,8.6l3.2,3.2c0.4,0.4,1,0.7,1.6,0.7c0.6,0,1.2-0.2,1.6-0.7l3.2-3.2l17.2-17.2 c0.4-0.4,0.7-1,0.7-1.6C38.6,11.6,38.4,11.1,37.9,10.6z"/></symbol>
</svg>
